<?xml version="1.0" encoding="UTF-8"?>
<svg id="Layer_1" data-name="Layer 1" xmlns="http://www.w3.org/2000/svg" xmlns:xlink="http://www.w3.org/1999/xlink" viewBox="0 0 120 40">
  <defs>
    <style>
      .cls-1 {
        fill: url(#linear-gradient-5);
      }

      .cls-1, .cls-2, .cls-3, .cls-4, .cls-5, .cls-6, .cls-7, .cls-8 {
        fill-rule: evenodd;
      }

      .cls-2 {
        fill: url(#linear-gradient-7);
      }

      .cls-3 {
        fill: url(#linear-gradient-2);
      }

      .cls-4 {
        fill: url(#linear-gradient-3);
      }

      .cls-5 {
        fill: url(#linear-gradient-4);
      }

      .cls-6 {
        fill: url(#linear-gradient-6);
      }

      .cls-7 {
        fill: #fff;
      }

      .cls-9 {
        fill: url(#linear-gradient-8);
      }

      .cls-10 {
        fill: #231f20;
      }

      .cls-11 {
        fill: #00adee;
      }

      .cls-8 {
        fill: url(#linear-gradient);
      }
    </style>
    <linearGradient id="linear-gradient" x1="8.74" y1="31.95" x2="14.11" y2="11.67" gradientUnits="userSpaceOnUse">
      <stop offset="0" stop-color="#808184"/>
      <stop offset="1" stop-color="#231f20"/>
    </linearGradient>
    <linearGradient id="linear-gradient-2" x1="12.26" y1="19.56" x2="12.97" y2="36" xlink:href="#linear-gradient"/>
    <linearGradient id="linear-gradient-3" x1="13.3" y1="6.55" x2="11.31" y2="21.08" gradientUnits="userSpaceOnUse">
      <stop offset="0" stop-color="#808184"/>
      <stop offset="1" stop-color="#fff"/>
    </linearGradient>
    <linearGradient id="linear-gradient-4" x1="20.44" y1="8.65" x2="5" y2="28.18" xlink:href="#linear-gradient"/>
    <linearGradient id="linear-gradient-5" x1="12.37" y1="9.39" x2="12.37" y2="31.22" gradientUnits="userSpaceOnUse">
      <stop offset="0" stop-color="#0071bb"/>
      <stop offset="1" stop-color="#0071bb"/>
    </linearGradient>
    <linearGradient id="linear-gradient-6" x1="12.16" y1="17.94" x2="13.69" y2="27.03" gradientUnits="userSpaceOnUse">
      <stop offset="0" stop-color="#00adee"/>
      <stop offset="1" stop-color="#0071bb"/>
    </linearGradient>
    <linearGradient id="linear-gradient-7" x1="12.22" y1="13.79" x2="11.83" y2="23.77" gradientUnits="userSpaceOnUse">
      <stop offset="0" stop-color="#00adee"/>
      <stop offset="1" stop-color="#fff"/>
    </linearGradient>
    <linearGradient id="linear-gradient-8" x1="12.92" y1="15.09" x2="21.39" y2="15.09" xlink:href="#linear-gradient-7"/>
  </defs>
  <g>
    <g>
      <path class="cls-10" d="M28.41,17.65v2.97h-1.71v-7.44c0-.24.08-.45.25-.62.17-.17.37-.25.62-.25h2.82c.88,0,1.55.23,1.98.68.45.45.68,1.12.68,2,0,.84-.22,1.5-.65,1.98-.43.45-1.06.68-1.88.68h-2.1ZM28.41,16.15h1.67c.45,0,.77-.1.97-.29.21-.18.31-.48.31-.92,0-.37-.1-.67-.29-.89-.23-.19-.52-.29-.89-.29h-1.76v2.39Z"/>
      <path class="cls-10" d="M33.35,20.62v-3.11c0-.63.09-1.15.28-1.58.18-.43.44-.77.76-1.03.31-.24.66-.42,1.07-.53.41-.11.83-.17,1.27-.17h.24v1.71h-.56c-.47,0-.81.11-1.04.34-.23.23-.34.58-.34,1.06v3.31h-1.69Z"/>
      <path class="cls-10" d="M41.61,18.64h1.21c-.18.68-.52,1.19-1.01,1.55-.5.37-1.13.56-1.88.56-.92,0-1.63-.3-2.15-.89-.52-.58-.77-1.41-.77-2.49s.25-1.83.75-2.41c.51-.6,1.23-.89,2.15-.89.97,0,1.71.29,2.25.87.51.6.77,1.42.77,2.49v.27c0,.08,0,.14-.02.17h-4.18c.02.5.14.87.36,1.11.21.26.52.39.94.39.27,0,.51-.06.7-.17.05-.02.09-.04.13-.08.04-.04.08-.08.13-.13.02-.05.08-.11.18-.19.1-.08.25-.12.45-.12ZM38.71,16.75h2.46c-.03-.43-.15-.76-.34-.97-.21-.23-.51-.34-.89-.34-.35,0-.64.11-.87.34-.23.23-.35.55-.36.97Z"/>
      <path class="cls-10" d="M43.04,18.49h1.64c.02.32.14.56.36.72.24.16.56.24.97.24.29,0,.54-.06.75-.17.19-.11.29-.27.29-.46,0-.29-.34-.51-1.01-.65-.29-.05-.51-.1-.65-.14-.85-.21-1.42-.46-1.71-.75-.32-.29-.48-.68-.48-1.16,0-.61.23-1.12.7-1.52.48-.37,1.11-.56,1.88-.56.84,0,1.5.19,2,.56.47.4.72.93.75,1.57h-1.04c-.31,0-.54-.14-.7-.41-.07-.06-.13-.13-.19-.19-.19-.14-.46-.22-.8-.22s-.56.05-.72.14c-.14.1-.22.24-.22.43,0,.26.42.47,1.26.65.1.03.18.06.25.07.07.02.14.02.21.02.82.21,1.39.45,1.71.72.31.29.46.68.46,1.16,0,.71-.26,1.26-.77,1.64-.48.35-1.21.53-2.17.53s-1.6-.18-2.05-.56c-.47-.37-.7-.91-.7-1.62v-.07Z"/>
      <path class="cls-10" d="M48.85,18.49h1.64c.02.32.14.56.36.72.24.16.56.24.97.24.29,0,.54-.06.75-.17.19-.11.29-.27.29-.46,0-.29-.34-.51-1.01-.65-.29-.05-.51-.1-.65-.14-.85-.21-1.42-.46-1.71-.75-.32-.29-.48-.68-.48-1.16,0-.61.23-1.12.7-1.52.48-.37,1.11-.56,1.88-.56.84,0,1.5.19,2,.56.47.4.72.93.75,1.57h-1.04c-.31,0-.54-.14-.7-.41-.06-.06-.13-.13-.19-.19-.19-.14-.46-.22-.8-.22s-.56.05-.72.14c-.14.1-.22.24-.22.43,0,.26.42.47,1.26.65.1.03.18.06.25.07.07.02.14.02.21.02.82.21,1.39.45,1.71.72.31.29.46.68.46,1.16,0,.71-.26,1.26-.77,1.64-.48.35-1.21.53-2.17.53s-1.6-.18-2.05-.56c-.47-.37-.7-.91-.7-1.62v-.07Z"/>
    </g>
    <g>
      <path class="cls-10" d="M57.33,20.61v-7.44c0-.24.08-.45.25-.62.17-.17.37-.25.62-.25h3.16c.9,0,1.57.19,2,.58.45.4.68.99.68,1.76,0,.52-.11.94-.34,1.28-.19.32-.5.56-.92.7.37.13.63.32.77.58.14.24.23.65.27,1.23l.05.99v.31c0,.11,0,.22.02.31.05.29.15.48.29.56h-1.88c-.08-.16-.13-.33-.14-.51-.03-.26-.05-.43-.05-.53l-.02-.89c-.03-.48-.13-.83-.29-1.04-.18-.18-.49-.27-.94-.27h-1.81v3.24h-1.71ZM59.05,15.93h2c.43,0,.76-.09.97-.27.21-.18.31-.45.31-.82s-.1-.64-.31-.82c-.19-.19-.48-.29-.87-.29h-2.1v2.2Z"/>
      <path class="cls-10" d="M69,18.63h1.21c-.18.68-.52,1.19-1.01,1.55-.5.37-1.13.56-1.88.56-.92,0-1.63-.3-2.15-.89-.52-.58-.77-1.41-.77-2.49s.25-1.83.75-2.41c.51-.6,1.23-.89,2.15-.89.97,0,1.71.29,2.25.87.51.6.77,1.42.77,2.49v.27c0,.08,0,.14-.02.17h-4.18c.02.5.14.87.36,1.11.21.26.52.39.94.39.27,0,.51-.06.7-.17.05-.02.09-.04.13-.08.04-.04.08-.08.13-.13.02-.05.08-.11.18-.19.1-.08.25-.12.45-.12ZM66.1,16.75h2.46c-.03-.43-.14-.76-.34-.97-.21-.23-.51-.34-.89-.34-.35,0-.64.11-.87.34-.23.23-.35.55-.36.97Z"/>
      <path class="cls-10" d="M74.67,20.35c-.34.18-.7.29-1.07.33-.38.04-.71.06-1,.06-.58,0-1.09-.16-1.52-.47-.43-.31-.65-.83-.65-1.56,0-.68.2-1.16.59-1.45.39-.29.9-.48,1.51-.58.08,0,.18-.01.29-.04.11-.02.24-.04.39-.06.71-.1,1.06-.31,1.06-.63,0-.24-.13-.4-.37-.47-.25-.07-.48-.11-.69-.11-.23,0-.43.03-.6.1-.18.06-.31.19-.39.36h-1.62c.06-.5.29-.91.68-1.23.43-.37,1.05-.56,1.86-.56.9,0,1.58.15,2.03.46.47.32.7.77.7,1.35v2.2c0,.64-.12,1.15-.35,1.51-.23.36-.51.62-.83.78ZM74.28,17.38c-.23.11-.54.22-.94.31l-.55.12c-.29.08-.5.19-.63.31-.11.18-.17.35-.17.53,0,.24.07.43.22.58.14.13.35.19.63.19.45,0,.8-.13,1.06-.39.26-.26.39-.61.39-1.06v-.6Z"/>
      <path class="cls-10" d="M80.34,12.28h.82c.22,0,.42.08.58.25.16.17.24.36.24.57v4.71c0,1.14-.33,1.92-.99,2.32-.66.4-1.38.6-2.15.6-.42,0-.83-.07-1.23-.21-.4-.14-.72-.36-.97-.66-.47-.6-.7-1.41-.7-2.44s.23-1.83.7-2.44c.48-.63,1.1-.94,1.86-.94.4,0,.76.08,1.06.24.32.19.58.44.77.75v-2.75ZM77.59,17.35c0,.64.12,1.13.36,1.47.24.34.59.51,1.04.51s.77-.17,1.01-.51c.22-.34.34-.83.34-1.47,0-.58-.12-1.04-.36-1.38-.26-.32-.6-.48-1.04-.48s-.75.17-.99.51c-.24.32-.36.77-.36,1.35Z"/>
      <path class="cls-10" d="M83.19,22.88v-1.33h.46c.32,0,.57-.08.76-.23.18-.15.22-.4.11-.74l-2.25-6.4h1.86l1.3,4.54,1.13-3.96c.1-.39.35-.58.77-.58h1.16l-2.46,7.32c-.19.53-.43.91-.72,1.13-.29.19-.76.29-1.42.29h-.34s-.11-.03-.18-.04c-.07,0-.13-.01-.18-.01Z"/>
    </g>
    <g>
      <path class="cls-10" d="M92.76,17.65v2.97h-1.71v-7.44c0-.24.08-.45.25-.62.17-.17.37-.25.62-.25h2.82c.89,0,1.55.23,1.98.68.45.45.68,1.12.68,2,0,.84-.22,1.5-.65,1.98-.43.45-1.06.68-1.88.68h-2.1ZM92.76,16.15h1.67c.45,0,.77-.1.97-.29.21-.18.31-.48.31-.92,0-.37-.1-.67-.29-.89-.23-.19-.52-.29-.89-.29h-1.76v2.39Z"/>
      <path class="cls-10" d="M101.82,20.35c-.34.18-.7.29-1.07.33-.38.04-.71.06-1,.06-.58,0-1.09-.16-1.52-.47-.43-.31-.65-.83-.65-1.56,0-.68.2-1.16.59-1.45.39-.29.9-.48,1.51-.58.08,0,.18-.01.29-.04.11-.02.24-.04.39-.06.71-.1,1.06-.31,1.06-.63,0-.24-.13-.4-.37-.47-.25-.07-.48-.11-.69-.11-.23,0-.43.03-.6.1-.18.06-.31.19-.39.36h-1.62c.06-.5.29-.91.68-1.23.43-.37,1.05-.56,1.86-.56.9,0,1.58.15,2.03.46.47.32.7.77.7,1.35v2.2c0,.64-.12,1.15-.35,1.51-.23.36-.51.62-.83.78ZM101.43,17.38c-.23.11-.54.22-.94.31l-.56.12c-.29.08-.5.19-.63.31-.11.18-.17.35-.17.53,0,.24.07.43.22.58.14.13.35.19.63.19.45,0,.8-.13,1.06-.39.26-.26.39-.61.39-1.06v-.6Z"/>
      <path class="cls-10" d="M104.88,22.16c0,.23-.08.42-.24.58-.16.16-.35.24-.58.24h-.82v-6.01c0-1.13.33-1.9.99-2.31.66-.41,1.38-.62,2.15-.62.4,0,.81.08,1.22.23s.74.37.98.66c.48.63.72,1.43.72,2.41s-.24,1.83-.72,2.46c-.48.61-1.1.92-1.86.92-.4,0-.76-.07-1.06-.22-.32-.16-.58-.41-.77-.75v2.39ZM107.63,17.43c0-.63-.12-1.11-.36-1.45-.24-.34-.59-.51-1.04-.51s-.77.17-1.01.51c-.23.31-.34.79-.34,1.45,0,.61.12,1.07.36,1.38.24.34.59.51,1.04.51.42,0,.75-.17.99-.51.24-.34.36-.8.36-1.38Z"/>
      <path class="cls-10" d="M114.06,18.64h1.21c-.18.68-.52,1.19-1.01,1.55-.5.37-1.13.56-1.88.56-.92,0-1.63-.3-2.15-.89-.52-.58-.77-1.41-.77-2.49s.25-1.83.75-2.41c.51-.6,1.23-.89,2.15-.89.97,0,1.71.29,2.25.87.51.6.77,1.42.77,2.49v.27c0,.08,0,.14-.02.17h-4.18c.02.5.14.87.36,1.11.21.26.52.39.94.39.27,0,.51-.06.7-.17.05-.02.09-.04.13-.08.04-.04.08-.08.13-.13.02-.05.08-.11.18-.19.1-.08.25-.12.45-.12ZM111.16,16.75h2.46c-.03-.43-.14-.76-.34-.97-.21-.23-.51-.34-.89-.34-.35,0-.64.11-.87.34-.23.23-.35.55-.36.97Z"/>
      <path class="cls-10" d="M115.62,20.61v-3.11c0-.63.09-1.15.28-1.58.18-.43.44-.77.76-1.03.31-.24.66-.42,1.07-.53.41-.11.83-.17,1.27-.17h.24v1.71h-.56c-.47,0-.81.11-1.04.34-.23.23-.34.58-.34,1.06v3.31h-1.69Z"/>
    </g>
    <g>
      <path class="cls-11" d="M28.95,27.23v-.45c-.18.16-.36.28-.57.36-.21.09-.41.13-.59.13-.29,0-.52-.09-.71-.28-.19-.19-.28-.41-.28-.67,0-.28.11-.52.32-.7.22-.19.51-.28.87-.28.12,0,.27.02.45.06.16.04.33.11.5.2v-.75c0-.23-.08-.4-.23-.5-.16-.1-.36-.15-.62-.15-.07,0-.14,0-.23.03-.08.02-.16.04-.23.06-.07.02-.16.05-.26.08l-.09-.21c.1-.04.19-.07.28-.1.08-.03.17-.05.27-.07.1-.02.19-.03.27-.03.39,0,.68.07.88.22.2.15.3.37.3.68v2.07h.53v.3h-.88ZM28.95,25.89c-.13-.09-.27-.15-.42-.2-.16-.05-.31-.08-.47-.08-.28,0-.5.07-.66.22-.16.14-.24.32-.24.53,0,.18.06.33.19.45.13.13.31.2.53.2.19,0,.38-.05.57-.15.2-.1.37-.23.5-.38v-.59Z"/>
      <path class="cls-11" d="M35,26.8c-.3.32-.69.47-1.18.47-.22,0-.43-.05-.63-.15-.21-.1-.4-.28-.58-.54v.64h-.35v-4.27h-.58v-.3h.93v2.05c.16-.27.35-.46.57-.58.22-.11.44-.17.67-.17.47,0,.85.15,1.15.46.3.3.45.69.45,1.16,0,.5-.15.91-.45,1.23ZM34.75,24.63c-.24-.26-.53-.38-.89-.38s-.64.13-.88.38c-.25.25-.37.58-.37.98s.12.75.36,1c.24.25.53.38.88.38.37,0,.67-.13.9-.39.23-.26.35-.6.35-1s-.12-.71-.34-.96Z"/>
      <path class="cls-11" d="M36.34,25.71c.02.38.15.69.38.93.25.27.57.4.97.4.07,0,.15-.01.24-.03.09-.02.18-.05.26-.07.08-.03.18-.06.3-.1l.08.26c-.13.05-.24.09-.34.12-.09.03-.2.06-.3.08-.11.03-.2.04-.29.04-.48,0-.87-.16-1.18-.48-.31-.31-.47-.72-.47-1.21s.15-.89.46-1.21c.3-.32.69-.48,1.17-.48s.83.15,1.13.47c.29.3.45.74.47,1.29h-2.88ZM38.45,24.57c-.22-.22-.51-.32-.86-.32-.36,0-.66.13-.9.4-.17.19-.29.44-.34.76h2.49c-.05-.34-.18-.62-.4-.84Z"/>
      <path class="cls-11" d="M40.31,27.3c-.19,0-.34-.05-.43-.15-.09-.1-.14-.25-.14-.45v-2.36h-.57v-.3h.57v-.71h.35s0,.71,0,.71h.67v.3h-.67v2.29c0,.13.02.22.07.27.04.05.12.08.22.08l.38-.06v.3l-.45.07Z"/>
      <path class="cls-11" d="M42.35,27.3c-.19,0-.34-.05-.43-.15-.1-.1-.14-.25-.14-.45v-2.36h-.57v-.3h.57v-.71h.35s0,.71,0,.71h.67v.3h-.67v2.29c0,.13.02.22.07.27.05.05.12.08.22.08l.38-.06v.3l-.45.07Z"/>
      <path class="cls-11" d="M43.25,25.71c.02.38.15.69.38.93.25.27.58.4.97.4.07,0,.15-.01.24-.03.09-.02.18-.05.26-.07.08-.03.18-.06.3-.1l.08.26c-.13.05-.24.09-.34.12-.09.03-.2.06-.3.08-.11.03-.2.04-.29.04-.48,0-.87-.16-1.18-.48-.31-.31-.46-.72-.46-1.21s.15-.89.46-1.21c.31-.32.69-.48,1.17-.48s.83.15,1.13.47c.29.3.44.74.47,1.29h-2.88ZM45.36,24.57c-.22-.22-.51-.32-.86-.32-.36,0-.66.13-.9.4-.17.19-.29.44-.34.76h2.49c-.05-.34-.18-.62-.4-.84Z"/>
      <path class="cls-11" d="M48.37,24.29c-.46,0-.8.1-1.02.29-.22.19-.33.5-.33.92v1.43h.66v.3h-1v-2.88h-.61v-.3h.96v.57s.03-.04.06-.09c.03-.05.08-.12.15-.2.07-.08.14-.13.22-.18.06-.03.13-.06.2-.09.08-.03.16-.05.24-.06.08-.02.17-.03.25-.04.08,0,.16-.01.23,0h.13v.34h-.13Z"/>
      <path class="cls-11" d="M53.33,27.23v-.63c-.17.25-.36.43-.57.53-.21.1-.44.16-.67.16-.45,0-.82-.16-1.13-.46-.3-.31-.45-.7-.45-1.17s.15-.89.44-1.21c.3-.32.67-.48,1.12-.48.22,0,.45.05.67.16.22.11.41.31.58.59v-2.05h.35v4.27h.58v.3h-.93ZM52.97,24.64c-.24-.26-.54-.4-.89-.4s-.65.13-.88.4c-.24.27-.36.61-.36,1s.12.69.36.96c.24.26.54.39.89.39s.66-.13.89-.38c.23-.26.35-.59.35-.98s-.12-.71-.36-.98Z"/>
      <path class="cls-11" d="M54.67,25.71c.02.38.15.69.39.93.25.27.57.4.97.4.07,0,.15-.01.24-.03.09-.02.18-.05.26-.07.08-.03.18-.06.3-.1l.08.26c-.13.05-.24.09-.34.12-.09.03-.2.06-.3.08-.11.03-.2.04-.29.04-.48,0-.87-.16-1.18-.48-.31-.31-.46-.72-.46-1.21s.15-.89.46-1.21c.31-.32.7-.48,1.17-.48s.83.15,1.13.47c.29.3.44.74.47,1.29h-2.88ZM56.78,24.57c-.22-.22-.51-.32-.86-.32-.36,0-.67.13-.9.4-.18.19-.29.44-.34.76h2.49c-.04-.34-.18-.62-.4-.84Z"/>
      <path class="cls-11" d="M59.82,27.23v-.45c-.18.16-.36.28-.57.36-.22.09-.41.13-.59.13-.29,0-.52-.09-.71-.28-.19-.19-.28-.41-.28-.67,0-.28.11-.52.32-.7.22-.19.51-.28.87-.28.12,0,.27.02.44.06.17.04.33.11.51.2v-.75c0-.23-.08-.4-.23-.5-.16-.1-.36-.15-.62-.15-.07,0-.14,0-.23.03-.08.02-.16.04-.23.06-.07.02-.16.05-.26.08l-.09-.21c.11-.04.2-.07.28-.1.08-.03.17-.05.27-.07.1-.02.19-.03.27-.03.39,0,.68.07.88.22.2.15.3.37.3.68v2.07h.53v.3h-.88ZM59.82,25.89c-.14-.09-.28-.15-.42-.2-.16-.05-.31-.08-.47-.08-.28,0-.5.07-.66.22-.16.14-.24.32-.24.53,0,.18.06.33.19.45.13.13.31.2.53.2.19,0,.38-.05.57-.15.2-.1.37-.23.5-.38v-.59Z"/>
      <path class="cls-11" d="M61.4,27.23v-4.27h-.58v-.3h.93v4.27h.57v.3h-.92Z"/>
      <path class="cls-11" d="M65.94,23.27c-.03-.13-.08-.22-.16-.28-.08-.07-.17-.1-.28-.1-.14,0-.24.04-.32.13-.08.09-.12.22-.12.39v.64h.63v.3h-.63v2.58h.63v.3h-.97v-.3h0v-2.58h-.49v-.3h.49v-.57c0-.26.07-.48.22-.65.15-.16.34-.24.57-.24.21,0,.38.06.5.19.13.13.21.28.24.44l-.31.05Z"/>
      <path class="cls-11" d="M68.54,26.84c-.31.32-.69.48-1.14.48s-.83-.16-1.13-.48c-.31-.33-.46-.73-.46-1.2s.15-.88.45-1.2c.3-.32.68-.48,1.14-.48s.83.16,1.13.48c.31.33.46.73.46,1.2s-.15.87-.45,1.2ZM68.29,24.66c-.23-.26-.53-.39-.89-.39s-.65.13-.88.38c-.23.26-.35.59-.35.98s.12.72.34.98c.23.26.53.39.89.39s.65-.13.88-.38c.24-.26.35-.59.35-.98s-.12-.72-.34-.98Z"/>
      <path class="cls-11" d="M71.39,24.29c-.46,0-.8.1-1.02.29-.22.19-.33.5-.33.92v1.43h.66v.3h-1.01v-2.88h-.61v-.3h.96v.57s.02-.04.06-.09c.03-.05.08-.12.15-.2.07-.08.14-.13.21-.18.06-.03.13-.06.2-.09.08-.03.16-.05.24-.06.08-.02.17-.03.25-.04.08,0,.16-.01.23,0h.13v.34h-.13Z"/>
      <path class="cls-11" d="M74.45,27.3c-.19,0-.34-.05-.43-.15-.09-.1-.14-.25-.14-.45v-2.36h-.57v-.3h.57v-.71h.35s0,.71,0,.71h.67v.3h-.67v2.29c0,.13.02.22.07.27.05.05.12.08.22.08l.38-.06v.3l-.45.07Z"/>
      <path class="cls-11" d="M77.54,27.23v-2.4c0-.18-.05-.32-.14-.41-.09-.1-.23-.15-.41-.15-.19,0-.39.05-.61.16-.23.11-.42.24-.57.39v2.1h.53v.3h-.86v-.3h-.01v-3.97h-.58v-.3h.93v1.82c.18-.16.37-.28.58-.38.21-.09.42-.14.65-.14.26,0,.46.07.62.22.16.16.24.36.24.61v2.14h.51v.3h-.86Z"/>
      <path class="cls-11" d="M78.86,25.71c.02.38.15.69.38.93.25.27.58.4.97.4.07,0,.15-.01.24-.03.09-.02.18-.05.26-.07.08-.03.18-.06.3-.1l.08.26c-.13.05-.24.09-.34.12-.09.03-.2.06-.3.08-.11.03-.2.04-.29.04-.48,0-.87-.16-1.18-.48-.31-.31-.47-.72-.47-1.21s.15-.89.46-1.21c.3-.32.69-.48,1.16-.48s.83.15,1.13.47c.29.3.44.74.47,1.29h-2.88ZM80.97,24.57c-.22-.22-.51-.32-.86-.32-.36,0-.67.13-.9.4-.18.19-.29.44-.34.76h2.49c-.04-.34-.18-.62-.4-.84Z"/>
      <path class="cls-11" d="M86.08,27.07c-.23.18-.52.26-.88.26-.2,0-.38-.04-.55-.11-.17-.08-.32-.21-.44-.4v.4h-.31v-1.11h.31c0,.29.1.52.28.69.18.17.43.25.73.25.23,0,.43-.06.61-.18.17-.13.26-.29.26-.47,0-.19-.06-.33-.2-.43-.13-.1-.37-.18-.73-.24-.39-.07-.66-.16-.83-.29-.18-.13-.26-.33-.26-.61s.1-.49.29-.65c.19-.16.43-.24.71-.24.18,0,.35.03.49.1.15.07.28.18.39.33v-.25h.3v.91h-.3c0-.23-.09-.42-.26-.57-.17-.15-.37-.23-.62-.23-.21,0-.38.06-.51.18-.13.11-.19.25-.19.42,0,.18.06.3.18.39.12.08.34.15.68.21.48.09.79.2.93.34.15.14.22.34.22.6,0,.3-.11.53-.32.69Z"/>
      <path class="cls-11" d="M91.41,27.23v-2.4c0-.18-.05-.31-.13-.41-.09-.1-.23-.15-.4-.15-.19,0-.39.05-.59.16-.2.11-.39.25-.57.42v2.38h-.35v-2.4c0-.18-.04-.31-.13-.41-.09-.1-.22-.15-.4-.15s-.38.05-.59.16c-.22.11-.41.24-.57.39v2.1h.52v.3h-.88v-2.88h-.58v-.3h.93v.43c.18-.16.36-.29.55-.38.21-.09.42-.14.63-.14s.38.05.52.14c.14.09.24.24.3.43.12-.13.31-.26.55-.39.23-.12.45-.18.66-.18.26,0,.48.07.63.22.16.16.24.36.24.61v2.14h.5v.3h-.85Z"/>
      <path class="cls-11" d="M94.66,27.23v-.45c-.17.16-.36.28-.57.36-.22.09-.41.13-.59.13-.29,0-.52-.09-.71-.28-.19-.19-.28-.41-.28-.67,0-.28.11-.52.32-.7.22-.19.51-.28.87-.28.13,0,.27.02.44.06.17.04.34.11.5.2v-.75c0-.23-.08-.4-.23-.5-.16-.1-.36-.15-.62-.15-.07,0-.14,0-.23.03-.08.02-.16.04-.23.06-.07.02-.16.05-.26.08l-.09-.21c.1-.04.19-.07.28-.1.08-.03.17-.05.27-.07.1-.02.19-.03.27-.03.39,0,.68.07.88.22.2.15.3.37.3.68v2.07h.53v.3h-.88ZM94.66,25.89c-.13-.09-.27-.15-.42-.2-.16-.05-.32-.08-.47-.08-.28,0-.5.07-.66.22-.16.14-.24.32-.24.53,0,.18.06.33.19.45.13.13.31.2.53.2.19,0,.38-.05.57-.15.2-.1.37-.23.5-.38v-.59Z"/>
      <path class="cls-11" d="M96.24,27.23v-4.27h-.58v-.3h.93v4.27h.57v.3h-.92Z"/>
      <path class="cls-11" d="M97.86,27.23v-4.27h-.58v-.3h.93v4.27h.57v.3h-.92Z"/>
      <path class="cls-11" d="M103.8,26.84c-.29.32-.67.48-1.13.48-.23,0-.45-.05-.67-.16-.22-.1-.4-.3-.56-.59v1.77h.58v.3h-.93v-4.31h-.54v-.3h.89v.65c.18-.28.37-.47.58-.57.22-.11.44-.16.66-.16.45,0,.82.16,1.11.47.3.32.44.72.44,1.19s-.15.91-.44,1.23ZM103.57,24.65c-.23-.26-.54-.39-.91-.39-.35,0-.64.13-.88.38-.23.25-.35.58-.35.99s.12.74.36,1c.24.26.53.38.89.38s.67-.13.9-.38c.23-.25.34-.58.34-.98s-.12-.74-.35-.99Z"/>
      <path class="cls-11" d="M106.66,24.29c-.46,0-.8.1-1.02.29-.22.19-.33.5-.33.92v1.43h.65v.3h-1v-2.88h-.61v-.3h.96v.57s.02-.04.06-.09c.03-.05.08-.12.15-.2.07-.08.14-.13.21-.18.06-.03.13-.06.2-.09.08-.03.16-.05.24-.06.08-.02.17-.03.25-.04.08,0,.16-.01.23,0h.13v.34h-.13Z"/>
      <path class="cls-11" d="M107.6,27.23v-.3h0v-2.58h-.56v-.3h.91v2.88h.54v.3h-.89ZM107.87,23.04c-.05.05-.12.08-.19.08s-.13-.03-.19-.08c-.05-.06-.08-.12-.08-.19,0-.08.03-.14.08-.2.05-.05.12-.08.19-.08s.14.03.19.08c.05.05.08.12.08.19,0,.08-.03.14-.08.2Z"/>
      <path class="cls-11" d="M111.26,27.23v-2.4c0-.18-.05-.32-.14-.41-.09-.1-.23-.15-.4-.15-.19,0-.39.05-.61.16-.22.11-.41.24-.57.39v2.1h.52v.3h-.87v-2.88h-.58v-.3h.93v.43c.18-.16.37-.28.58-.38.21-.09.42-.14.64-.14.25,0,.45.07.61.22.16.16.24.36.24.61v2.14h.51v.3h-.86Z"/>
      <path class="cls-11" d="M113.3,27.3c-.19,0-.33-.05-.43-.15-.09-.1-.14-.25-.14-.45v-2.36h-.57v-.3h.57v-.71h.35s0,.71,0,.71h.67v.3h-.67v2.29c0,.13.02.22.07.27.04.05.12.08.22.08l.38-.06v.3l-.44.07Z"/>
      <path class="cls-11" d="M114.2,25.71c.02.38.15.69.38.93.25.27.57.4.97.4.07,0,.15-.01.24-.03.09-.02.18-.05.26-.07.08-.03.18-.06.3-.1l.08.26c-.13.05-.24.09-.34.12-.09.03-.19.06-.3.08-.11.03-.2.04-.29.04-.48,0-.87-.16-1.18-.48-.31-.31-.47-.72-.47-1.21s.15-.89.46-1.21c.31-.32.69-.48,1.17-.48s.83.15,1.13.47c.29.3.45.74.47,1.29h-2.88ZM116.31,24.57c-.23-.22-.51-.32-.86-.32-.36,0-.67.13-.9.4-.17.19-.29.44-.34.76h2.49c-.05-.34-.18-.62-.4-.84Z"/>
      <path class="cls-11" d="M119.32,24.29c-.46,0-.8.1-1.02.29-.22.19-.33.5-.33.92v1.43h.65v.3h-1v-2.88h-.61v-.3h.96v.57s.02-.04.06-.09c.03-.05.08-.12.15-.2.07-.08.14-.13.22-.18.06-.03.13-.06.2-.09.08-.03.15-.05.24-.06.08-.02.17-.03.25-.04.08,0,.16-.01.23,0h.13v.34h-.13Z"/>
    </g>
  </g>
  <g>
    <path class="cls-8" d="M12.23,7.42c6.27,0,11.36,5.09,11.36,11.36s-5.09,11.36-11.36,11.36S.87,25.05.87,18.78,5.95,7.42,12.23,7.42h0Z"/>
    <path class="cls-3" d="M12.23,7.8c6.01,0,10.88,4.87,10.88,10.88s-4.87,10.88-10.88,10.88S1.35,24.69,1.35,18.68,6.22,7.8,12.23,7.8h0Z"/>
    <path class="cls-4" d="M1.87,15.23c1.53,4.17,5.53,7.14,10.22,7.14s8.81-3.06,10.28-7.33c-1.53-4.17-5.53-7.14-10.22-7.14S3.35,10.97,1.87,15.23Z"/>
    <path class="cls-5" d="M12.38,8.66c5.63,0,10.2,4.57,10.2,10.2s-4.57,10.2-10.2,10.2S2.18,24.49,2.18,18.85s4.57-10.2,10.2-10.2h0Z"/>
    <path class="cls-1" d="M12.37,8.93c5.43,0,9.83,4.4,9.83,9.83s-4.4,9.83-9.83,9.83S2.54,24.19,2.54,18.76s4.4-9.83,9.83-9.83h0Z"/>
    <path class="cls-6" d="M12.26,9.39c5.08,0,9.19,4.12,9.19,9.19s-4.12,9.19-9.19,9.19S3.07,23.66,3.07,18.59s4.12-9.19,9.19-9.19h0Z"/>
    <path class="cls-2" d="M12.16,9.49c3.81,0,7.08,2.32,8.47,5.62-1.4,3.29-4.66,5.61-8.47,5.61s-7.08-2.32-8.47-5.62c1.4-3.29,4.66-5.61,8.47-5.61h0Z"/>
    <path class="cls-9" d="M21.22,19.21c0,.55-.04,1.09-.13,1.61.19-.74.29-1.51.29-2.3,0-4.83-3.73-8.79-8.47-9.16,4.68.6,8.3,4.78,8.3,9.85Z"/>
    <path class="cls-7" d="M8.62,17.03c-.1.06-.13.19-.07.29.06.1.19.13.29.07.1-.06.13-.19.07-.29-.06-.1-.19-.13-.29-.07ZM9.14,16.09c-.13.08-.17.25-.09.38.08.13.25.17.39.09.13-.08.17-.25.09-.39-.08-.13-.25-.17-.38-.09ZM9.83,15.23c-.17.1-.22.32-.12.49.1.17.32.22.49.12.17-.1.22-.32.12-.49-.1-.17-.32-.22-.49-.12ZM10.6,14.54c-.2.12-.26.38-.14.58.12.2.38.26.59.14.2-.12.26-.38.14-.59-.12-.2-.38-.26-.58-.14ZM11.59,13.92c-.23.14-.31.45-.17.69.14.23.45.31.69.17.23-.14.31-.45.16-.69-.14-.23-.45-.31-.69-.17ZM12.91,13.45c-.27.16-.35.52-.19.79.16.27.52.35.79.19.27-.16.35-.52.19-.79-.16-.27-.52-.35-.79-.19ZM14.36,13.29c-.3.19-.4.58-.21.89.19.3.58.4.89.21.3-.19.4-.58.21-.89-.19-.3-.58-.4-.89-.21ZM15.99,13.54c-.34.21-.44.65-.24.99.21.34.65.44.99.24.34-.21.44-.65.24-.99-.21-.34-.65-.44-.98-.24ZM18.79,14.64c-.23-.37-.71-.49-1.09-.26-.37.23-.49.71-.26,1.09.23.37.71.49,1.09.26.37-.23.49-.71.26-1.09Z"/>
    <path class="cls-7" d="M7.56,20.6c-.11-.02-.22.05-.24.16-.02.11.05.22.16.24.11.02.22-.05.24-.16.02-.11-.05-.22-.16-.24ZM7.53,19.84c.03-.15-.07-.3-.22-.33-.15-.03-.3.07-.33.22-.03.15.07.3.22.33.15.03.3-.07.33-.22ZM7.51,18.78c.04-.19-.09-.38-.28-.42-.19-.04-.38.09-.42.28-.04.19.09.38.28.42.19.04.38-.09.42-.28ZM7.16,18.11c.23.05.45-.1.5-.33.05-.23-.1-.45-.33-.5-.23-.05-.45.1-.5.33-.05.23.1.45.33.5ZM7.64,16.07c-.27-.05-.53.12-.59.39-.05.27.12.53.39.59.27.05.53-.12.59-.39.05-.27-.12-.53-.39-.59ZM8.27,14.72c-.31-.06-.61.14-.67.45-.06.31.14.61.45.67.31.06.61-.14.67-.45.06-.31-.14-.61-.45-.67ZM9.22,13.5c-.35-.07-.69.16-.76.5-.07.35.16.69.5.76.35.07.69-.16.76-.51.07-.35-.16-.69-.5-.76ZM10.6,12.41c-.39-.08-.77.17-.84.56-.08.39.17.77.56.84.39.08.77-.17.84-.56.08-.39-.17-.77-.56-.84ZM12.47,11.66c-.43-.09-.84.19-.93.62-.09.43.19.84.62.93.43.09.84-.19.93-.62.09-.43-.19-.84-.62-.93Z"/>
    <path class="cls-7" d="M11.91,24.87c-.1-.06-.22-.03-.29.06-.06.1-.03.22.06.29.1.06.22.03.29-.06.06-.1.03-.22-.06-.29ZM10.91,24.68c-.13-.08-.3-.05-.39.08-.08.13-.05.3.08.39.13.08.3.05.39-.08.08-.13.05-.3-.08-.39ZM9.92,24.31c-.16-.11-.38-.06-.49.1-.11.16-.06.38.1.49.16.11.38.06.49-.1.11-.16.06-.38-.1-.49ZM9.04,23.79c-.2-.13-.46-.07-.59.13-.13.2-.07.46.13.59.2.13.46.07.59-.13.13-.2.07-.46-.13-.59ZM8.13,23.04c-.23-.15-.54-.08-.69.15-.15.23-.08.54.15.69.23.15.54.08.69-.15.15-.23.08-.54-.15-.69ZM7.22,21.93c-.26-.17-.62-.1-.79.17-.17.26-.1.62.17.79.26.17.62.1.79-.17.17-.26.1-.62-.17-.79ZM6.72,21.47c.19-.3.11-.7-.19-.89-.3-.19-.7-.11-.89.19-.19.3-.11.7.19.89.3.19.7.11.89-.19ZM6.34,19.86c.22-.33.12-.78-.21-.99-.33-.22-.78-.12-.99.21-.22.33-.12.78.21.99.33.22.78.12.99-.21ZM5.36,18.16c.37.24.85.13,1.09-.23.24-.37.13-.85-.23-1.09-.37-.24-.85-.13-1.09.23-.24.37-.13.85.23,1.09Z"/>
    <g>
      <path class="cls-10" d="M10.18,20.88v1.49h-.86v-3.74c0-.12.04-.22.13-.31.09-.09.19-.13.31-.13h1.42c.44,0,.78.11,1,.34.23.23.34.56.34,1.01,0,.42-.11.75-.33,1-.22.23-.53.34-.95.34h-1.06ZM10.18,20.12h.84c.23,0,.39-.05.49-.15.11-.09.16-.24.16-.46,0-.19-.05-.34-.15-.45-.11-.1-.26-.15-.45-.15h-.89v1.2Z"/>
      <path class="cls-10" d="M12.67,22.37v-3.74c0-.12.04-.22.13-.31.08-.09.19-.13.31-.13h1.59c.45,0,.79.1,1.01.29.23.2.34.5.34.89,0,.26-.06.47-.17.64-.1.16-.25.28-.46.35.19.06.32.16.39.29.07.12.12.33.13.62l.02.5v.16c0,.06,0,.11.01.16.02.15.07.24.15.28h-.95c-.04-.08-.06-.17-.07-.25-.02-.13-.02-.22-.02-.27v-.45c-.03-.24-.08-.42-.16-.52-.09-.09-.25-.13-.47-.13h-.91v1.63h-.86ZM13.54,20.01h1.01c.22,0,.38-.04.49-.13.11-.09.16-.23.16-.41s-.05-.32-.16-.41c-.1-.1-.24-.15-.44-.15h-1.06v1.1Z"/>
      <path class="cls-10" d="M17.15,20.88v1.49h-.86v-3.74c0-.12.04-.22.13-.31.09-.09.19-.13.31-.13h1.42c.45,0,.78.11,1,.34.23.23.34.56.34,1.01,0,.42-.11.75-.33,1-.22.23-.53.34-.95.34h-1.06ZM17.15,20.12h.84c.23,0,.39-.05.49-.15.11-.09.16-.24.16-.46,0-.19-.05-.34-.15-.45-.11-.1-.26-.15-.45-.15h-.89v1.2Z"/>
    </g>
  </g>
</svg>